<?xml version="1.0" ?><svg xmlns="http://www.w3.org/2000/svg" viewBox="0 0 17.64 27.93"><defs><style>.cls-1{fill:#F0760C;}</style></defs><g id="Layer_2" data-name="Layer 2"><g id="Layer_1-2" data-name="Layer 1"><path id="Path_1031" data-name="Path 1031" class="cls-1" d="M15.37,0H2.27A2.16,2.16,0,0,0,0,2V25.9a2.16,2.16,0,0,0,2.27,2h13.1a2.16,2.16,0,0,0,2.27-2V2A2.16,2.16,0,0,0,15.37,0ZM5.59,1.24h6.47c.16,0,.29.22.29.49s-.13.49-.29.49H5.59c-.17,0-.3-.22-.3-.49S5.42,1.24,5.59,1.24ZM8.83,25.92a1.3,1.3,0,1,1,1.44-1.3A1.38,1.38,0,0,1,8.83,25.92ZM16,21.48H1.7v-18H15.94V21.48Z"/></g></g></svg>