<?xml version="1.0" ?><svg xmlns="http://www.w3.org/2000/svg" viewBox="0 0 15.92 25.22"><defs><style>.cls-1{fill:#F0760C;}</style></defs><g id="Layer_2" data-name="Layer 2"><g id="Layer_1-2" data-name="Layer 1"><path id="Path_1722" data-name="Path 1722" class="cls-1" d="M13.88,0H2.05A2,2,0,0,0,0,1.84V23.38a2,2,0,0,0,2.05,1.83H13.88a1.94,1.94,0,0,0,2-1.83V1.84A2,2,0,0,0,13.88,0ZM5,1.12h5.84c.15,0,.27.2.27.44S11,2,10.88,2H5c-.15,0-.26-.2-.26-.44S4.89,1.12,5,1.12ZM8,23.4a1.18,1.18,0,1,1,1.3-1.17A1.25,1.25,0,0,1,8,23.4Zm6.43-4H1.53V3.1H14.39V19.39Z"/></g></g></svg>